<svg xmlns="http://www.w3.org/2000/svg" viewBox="0 0 940.59 68"><title>nav-bg-white</title><path d="M425.75,3.22a6.61,6.61,0,0,0-9.09-.2A20.6,20.6,0,0,0,412.27.25,20.61,20.61,0,0,0,407.89,3a6.61,6.61,0,0,0-9.09.18h0l0,0a6.61,6.61,0,0,0-9.09-.2A20.6,20.6,0,0,0,385.28.25,20.61,20.61,0,0,0,380.89,3a6.61,6.61,0,0,0-9.09.18h0l0,0a6.61,6.61,0,0,0-9.09-.2A20.6,20.6,0,0,0,358.28.25,20.61,20.61,0,0,0,353.9,3a6.61,6.61,0,0,0-9.09.18h0l0,0a6.61,6.61,0,0,0-9.09-.2A20.6,20.6,0,0,0,331.28.25,20.61,20.61,0,0,0,326.9,3a6.61,6.61,0,0,0-9.09.18h0l0,0a6.61,6.61,0,0,0-9.09-.2A20.6,20.6,0,0,0,304.29.25,20.61,20.61,0,0,0,299.91,3a6.61,6.61,0,0,0-9.09.18h0l0,0a6.61,6.61,0,0,0-9.09-.2A20.6,20.6,0,0,0,277.29.25,20.61,20.61,0,0,0,272.91,3a6.61,6.61,0,0,0-9.09.18h0l0,0a6.61,6.61,0,0,0-9.09-.2A20.6,20.6,0,0,0,250.3.25,20.61,20.61,0,0,0,245.92,3a6.61,6.61,0,0,0-9.09.18h0l0,0a6.61,6.61,0,0,0-9.09-.2A20.6,20.6,0,0,0,223.3.25,20.61,20.61,0,0,0,218.92,3a6.61,6.61,0,0,0-9.09.18h0l0,0A6.61,6.61,0,0,0,200.7,3,20.6,20.6,0,0,0,196.31.25,20.61,20.61,0,0,0,191.92,3a6.61,6.61,0,0,0-9.09.18h0l0,0A6.61,6.61,0,0,0,173.7,3,20.6,20.6,0,0,0,169.31.25,20.61,20.61,0,0,0,164.93,3a6.61,6.61,0,0,0-9.09.18h0l0,0a6.61,6.61,0,0,0-9.09-.2A20.6,20.6,0,0,0,142.31.25,20.61,20.61,0,0,0,137.93,3a6.61,6.61,0,0,0-9.09.18h0l0,0a6.61,6.61,0,0,0-9.09-.2A20.6,20.6,0,0,0,115.32.25,20.61,20.61,0,0,0,110.94,3a6.61,6.61,0,0,0-9.09.18h0l0,0A6.61,6.61,0,0,0,92.71,3,20.6,20.6,0,0,0,88.32.25,20.61,20.61,0,0,0,83.94,3a6.61,6.61,0,0,0-9.09.18h0l0,0A6.61,6.61,0,0,0,65.72,3,20.6,20.6,0,0,0,61.33.25,20.61,20.61,0,0,0,56.95,3a6.61,6.61,0,0,0-9.09.18h0l0,0A6.61,6.61,0,0,0,38.72,3,20.6,20.6,0,0,0,34.33.25,20.61,20.61,0,0,0,29.95,3a6.62,6.62,0,0,0-9.11.2,20.26,20.26,0,0,0-4.61-3,20.91,20.91,0,0,0-4.15,2.57A6.62,6.62,0,0,0,2.7,12.07,21,21,0,0,0,.2,16.13a20.24,20.24,0,0,0,3,4.62A6.61,6.61,0,0,0,3,29.83,20.59,20.59,0,0,0,.2,34.22,20.61,20.61,0,0,0,3,38.6a6.62,6.62,0,0,0,.2,9.11,20.26,20.26,0,0,0-3,4.61,21,21,0,0,0,2.5,4.06,6.62,6.62,0,0,0,9.35,9.27,20.87,20.87,0,0,0,4.18,2.6,20.24,20.24,0,0,0,4.62-3,6.61,6.61,0,0,0,9.09.2,20.6,20.6,0,0,0,4.39,2.77,20.61,20.61,0,0,0,4.38-2.77,6.62,6.62,0,0,0,9.11-.2l0,0v0a6.61,6.61,0,0,0,9.08.19,20.59,20.59,0,0,0,4.39,2.77,20.61,20.61,0,0,0,4.38-2.77,6.62,6.62,0,0,0,9.11-.2l0,0v0a6.61,6.61,0,0,0,9.08.19,20.6,20.6,0,0,0,4.39,2.77,20.61,20.61,0,0,0,4.38-2.77,6.62,6.62,0,0,0,9.11-.2l0,0v0a6.61,6.61,0,0,0,9.08.19,20.59,20.59,0,0,0,4.39,2.77,20.61,20.61,0,0,0,4.38-2.77,6.62,6.62,0,0,0,9.11-.2l0,0v0a6.61,6.61,0,0,0,9.08.19,20.59,20.59,0,0,0,4.39,2.77,20.61,20.61,0,0,0,4.38-2.77,6.62,6.62,0,0,0,9.11-.2l0,0v0a6.61,6.61,0,0,0,9.08.19,20.59,20.59,0,0,0,4.39,2.77,20.61,20.61,0,0,0,4.38-2.77,6.62,6.62,0,0,0,9.11-.2l0,0v0a6.61,6.61,0,0,0,9.08.19,20.59,20.59,0,0,0,4.39,2.77,20.61,20.61,0,0,0,4.38-2.77,6.62,6.62,0,0,0,9.11-.2l0,0v0a6.61,6.61,0,0,0,9.08.19,20.6,20.6,0,0,0,4.39,2.77,20.61,20.61,0,0,0,4.38-2.77,6.62,6.62,0,0,0,9.11-.2l0,0v0a6.61,6.61,0,0,0,9.08.19,20.59,20.59,0,0,0,4.39,2.77,20.61,20.61,0,0,0,4.38-2.77,6.62,6.62,0,0,0,9.11-.2l0,0v0a6.61,6.61,0,0,0,9.08.19,20.59,20.59,0,0,0,4.39,2.77,20.61,20.61,0,0,0,4.38-2.77,6.62,6.62,0,0,0,9.11-.2l0,0v0a6.61,6.61,0,0,0,9.08.19,20.59,20.59,0,0,0,4.39,2.77,20.61,20.61,0,0,0,4.38-2.77,6.62,6.62,0,0,0,9.11-.2l0,0v0a6.61,6.61,0,0,0,9.08.19,20.59,20.59,0,0,0,4.39,2.77,20.61,20.61,0,0,0,4.38-2.77,6.62,6.62,0,0,0,9.11-.2l0,0v0a6.61,6.61,0,0,0,9.08.19,20.6,20.6,0,0,0,4.39,2.77,20.61,20.61,0,0,0,4.38-2.77,6.62,6.62,0,0,0,9.11-.2l0,0v0a6.61,6.61,0,0,0,9.08.19,20.59,20.59,0,0,0,4.39,2.77,20.61,20.61,0,0,0,4.38-2.77,6.62,6.62,0,0,0,9.11-.2l0,0v0a6.61,6.61,0,0,0,9.08.19,20.6,20.6,0,0,0,4.39,2.77,20.61,20.61,0,0,0,4.38-2.77,6.62,6.62,0,0,0,9.11-.2l0,0V3.19ZM7,14.54c0.88,0,.55.71,0.55,1.59S7.86,17.71,7,17.71,5.4,16.13,5.4,16.13,6.11,14.54,7,14.54ZM7.84,27a1.59,1.59,0,0,1,0-3.17V27Zm0,14.49v3.17A1.59,1.59,0,0,1,7.85,41.47ZM7,32.64c0.88,0,.55.71,0.55,1.59S7.86,35.81,7,35.81,5.4,34.22,5.4,34.22,6.11,32.64,7,32.64ZM5.4,52.32S6.11,50.73,7,50.73s0.55,0.71.55,1.59S7.86,53.91,7,53.91,5.4,52.32,5.4,52.32Zm2.44,9.82a1.59,1.59,0,0,1-.64-3A7,7,0,0,0,7.9,59a2.13,2.13,0,0,0,1.52,1.61A1.59,1.59,0,0,1,7.84,62.14ZM7.91,9.41A7,7,0,0,0,7.2,9.35,1.59,1.59,0,1,1,9.42,7.85,2.13,2.13,0,0,0,7.91,9.41Zm8.32,53.65s-1.59-.71-1.59-1.59,0.71-.55,1.59-0.55,1.59-.33,1.59.55S16.23,63.06,16.23,63.06Zm0-55.48c-0.88,0-1.59.33-1.59-.55s1.59-1.59,1.59-1.59S17.82,6.15,17.82,7,17.11,7.58,16.23,7.58ZM25.5,62.16a1.59,1.59,0,0,1-1.58-1.44h3.16A1.59,1.59,0,0,1,25.5,62.16ZM23.92,7.78a1.59,1.59,0,0,1,3.16,0H23.92ZM34.33,5.44S35.92,6.15,35.92,7s-0.71.55-1.59,0.55-1.59.33-1.59-.55S34.33,5.44,34.33,5.44Zm0,57.62s-1.59-.71-1.59-1.59,0.71-.55,1.59-0.55,1.59-.33,1.59.55S34.33,63.06,34.33,63.06ZM43.16,6.34A1.59,1.59,0,0,1,44.75,7.9H41.58A1.59,1.59,0,0,1,43.16,6.34Zm0,55.83a1.59,1.59,0,0,1-1.59-1.57h3.17A1.59,1.59,0,0,1,43.16,62.18Zm9.33,0a1.59,1.59,0,0,1-1.58-1.44h3.16A1.59,1.59,0,0,1,52.5,62.16ZM50.92,7.78a1.59,1.59,0,0,1,3.16,0H50.92ZM61.33,63.06s-1.59-.71-1.59-1.59,0.71-.55,1.59-0.55,1.59-.33,1.59.55S61.33,63.06,61.33,63.06Zm0-55.48c-0.88,0-1.59.33-1.59-.55s1.59-1.59,1.59-1.59S62.91,6.15,62.91,7,62.2,7.58,61.33,7.58Zm8.83-1.24A1.59,1.59,0,0,1,71.74,7.9H68.57A1.59,1.59,0,0,1,70.16,6.34Zm0,55.83a1.59,1.59,0,0,1-1.59-1.57h3.17A1.59,1.59,0,0,1,70.16,62.18Zm9.33,0a1.59,1.59,0,0,1-1.58-1.44h3.16A1.59,1.59,0,0,1,79.49,62.16ZM77.91,7.78a1.59,1.59,0,0,1,3.16,0H77.91ZM88.32,63.06s-1.59-.71-1.59-1.59,0.71-.55,1.59-0.55,1.59-.33,1.59.55S88.32,63.06,88.32,63.06Zm0-55.48c-0.88,0-1.59.33-1.59-.55s1.59-1.59,1.59-1.59S89.91,6.15,89.91,7,89.2,7.58,88.32,7.58Zm8.83-1.24A1.59,1.59,0,0,1,98.74,7.9H95.57A1.59,1.59,0,0,1,97.15,6.34Zm0,55.83a1.59,1.59,0,0,1-1.59-1.57h3.17A1.59,1.59,0,0,1,97.15,62.18Zm9.33,0a1.59,1.59,0,0,1-1.58-1.44h3.16A1.59,1.59,0,0,1,106.49,62.16ZM104.91,7.78a1.59,1.59,0,0,1,3.16,0h-3.16Zm10.41,55.27s-1.59-.71-1.59-1.59,0.71-.55,1.59-0.55,1.59-.33,1.59.55S115.32,63.06,115.32,63.06Zm0-55.48c-0.88,0-1.59.33-1.59-.55s1.59-1.59,1.59-1.59,1.59,0.71,1.59,1.59S116.2,7.58,115.32,7.58Zm8.83-1.24a1.59,1.59,0,0,1,1.59,1.55h-3.17A1.59,1.59,0,0,1,124.15,6.34Zm0,55.83a1.59,1.59,0,0,1-1.59-1.57h3.17A1.59,1.59,0,0,1,124.15,62.18Zm9.33,0a1.59,1.59,0,0,1-1.58-1.44h3.16A1.59,1.59,0,0,1,133.48,62.16ZM131.9,7.78a1.59,1.59,0,0,1,3.16,0H131.9Zm10.41,55.27s-1.59-.71-1.59-1.59,0.71-.55,1.59-0.55,1.59-.33,1.59.55S142.31,63.06,142.31,63.06Zm0-55.48c-0.88,0-1.59.33-1.59-.55s1.59-1.59,1.59-1.59S143.9,6.15,143.9,7,143.19,7.58,142.31,7.58Zm8.83-1.24a1.59,1.59,0,0,1,1.59,1.55h-3.17A1.59,1.59,0,0,1,151.14,6.34Zm0,55.83a1.59,1.59,0,0,1-1.59-1.57h3.17A1.59,1.59,0,0,1,151.14,62.18Zm9.33,0a1.59,1.59,0,0,1-1.58-1.44h3.16A1.59,1.59,0,0,1,160.48,62.16ZM158.9,7.78a1.59,1.59,0,0,1,3.16,0H158.9Zm10.41,55.27s-1.59-.71-1.59-1.59,0.71-.55,1.59-0.55,1.59-.33,1.59.55S169.31,63.06,169.31,63.06Zm0-55.48c-0.88,0-1.59.33-1.59-.55s1.59-1.59,1.59-1.59S170.9,6.15,170.9,7,170.19,7.58,169.31,7.58Zm8.83-1.24a1.59,1.59,0,0,1,1.59,1.55h-3.17A1.59,1.59,0,0,1,178.14,6.34Zm0,55.83a1.59,1.59,0,0,1-1.59-1.57h3.17A1.59,1.59,0,0,1,178.14,62.18Zm9.33,0a1.59,1.59,0,0,1-1.58-1.44h3.16A1.59,1.59,0,0,1,187.47,62.16ZM185.89,7.78a1.59,1.59,0,0,1,3.16,0h-3.16Zm10.41,55.27s-1.59-.71-1.59-1.59,0.71-.55,1.59-0.55,1.59-.33,1.59.55S196.31,63.06,196.31,63.06Zm0-55.48c-0.88,0-1.59.33-1.59-.55s1.59-1.59,1.59-1.59,1.59,0.71,1.59,1.59S197.18,7.58,196.31,7.58Zm8.83-1.24a1.59,1.59,0,0,1,1.59,1.55h-3.17A1.59,1.59,0,0,1,205.14,6.34Zm0,55.83a1.59,1.59,0,0,1-1.59-1.57h3.17A1.59,1.59,0,0,1,205.14,62.18Zm9.33,0a1.59,1.59,0,0,1-1.58-1.44H216A1.59,1.59,0,0,1,214.47,62.16ZM212.89,7.78a1.59,1.59,0,0,1,3.16,0h-3.16ZM223.3,63.06s-1.59-.71-1.59-1.59,0.71-.55,1.59-0.55,1.59-.33,1.59.55S223.3,63.06,223.3,63.06Zm0-55.48c-0.88,0-1.59.33-1.59-.55s1.59-1.59,1.59-1.59,1.59,0.71,1.59,1.59S224.18,7.58,223.3,7.58Zm8.83-1.24a1.59,1.59,0,0,1,1.59,1.55h-3.17A1.59,1.59,0,0,1,232.13,6.34Zm0,55.83a1.59,1.59,0,0,1-1.59-1.57h3.17A1.59,1.59,0,0,1,232.13,62.18Zm9.33,0a1.59,1.59,0,0,1-1.58-1.44H243A1.59,1.59,0,0,1,241.47,62.16ZM239.89,7.78a1.59,1.59,0,0,1,3.16,0h-3.16ZM250.3,63.06s-1.59-.71-1.59-1.59,0.71-.55,1.59-0.55,1.59-.33,1.59.55S250.3,63.06,250.3,63.06Zm0-55.48c-0.88,0-1.59.33-1.59-.55s1.59-1.59,1.59-1.59,1.59,0.71,1.59,1.59S251.17,7.58,250.3,7.58Zm8.83-1.24a1.59,1.59,0,0,1,1.59,1.55h-3.17A1.59,1.59,0,0,1,259.13,6.34Zm0,55.83a1.59,1.59,0,0,1-1.59-1.57h3.17A1.59,1.59,0,0,1,259.13,62.18Zm9.33,0a1.59,1.59,0,0,1-1.58-1.44H270A1.59,1.59,0,0,1,268.46,62.16ZM266.88,7.78a1.59,1.59,0,0,1,3.16,0h-3.16Zm10.41,55.27s-1.59-.71-1.59-1.59,0.71-.55,1.59-0.55,1.59-.33,1.59.55S277.29,63.06,277.29,63.06Zm0-55.48c-0.88,0-1.59.33-1.59-.55s1.59-1.59,1.59-1.59,1.59,0.71,1.59,1.59S278.17,7.58,277.29,7.58Zm8.83-1.24a1.59,1.59,0,0,1,1.59,1.55h-3.17A1.59,1.59,0,0,1,286.12,6.34Zm0,55.83a1.59,1.59,0,0,1-1.59-1.57h3.17A1.59,1.59,0,0,1,286.12,62.18Zm9.33,0a1.59,1.59,0,0,1-1.58-1.44H297A1.59,1.59,0,0,1,295.46,62.16ZM293.88,7.78a1.59,1.59,0,0,1,3.16,0h-3.16Zm10.41,55.27s-1.59-.71-1.59-1.59,0.71-.55,1.59-0.55,1.59-.33,1.59.55S304.29,63.06,304.29,63.06Zm0-55.48c-0.88,0-1.59.33-1.59-.55s1.59-1.59,1.59-1.59,1.59,0.71,1.59,1.59S305.17,7.58,304.29,7.58Zm8.83-1.24a1.59,1.59,0,0,1,1.59,1.55h-3.17A1.59,1.59,0,0,1,313.12,6.34Zm0,55.83a1.59,1.59,0,0,1-1.59-1.57h3.17A1.59,1.59,0,0,1,313.12,62.18Zm9.33,0a1.59,1.59,0,0,1-1.58-1.44H324A1.59,1.59,0,0,1,322.45,62.16ZM320.87,7.78a1.59,1.59,0,0,1,3.16,0h-3.16Zm10.41,55.27s-1.59-.71-1.59-1.59,0.71-.55,1.59-0.55,1.59-.33,1.59.55S331.28,63.06,331.28,63.06Zm0-55.48c-0.88,0-1.59.33-1.59-.55s1.59-1.59,1.59-1.59,1.59,0.71,1.59,1.59S332.16,7.58,331.28,7.58Zm8.83-1.24A1.59,1.59,0,0,1,341.7,7.9h-3.17A1.59,1.59,0,0,1,340.12,6.34Zm0,55.83a1.59,1.59,0,0,1-1.59-1.57h3.17A1.59,1.59,0,0,1,340.12,62.18Zm9.33,0a1.59,1.59,0,0,1-1.58-1.44H351A1.59,1.59,0,0,1,349.45,62.16ZM347.87,7.78a1.59,1.59,0,0,1,3.16,0h-3.16Zm10.41,55.27s-1.59-.71-1.59-1.59,0.71-.55,1.59-0.55,1.59-.33,1.59.55S358.28,63.06,358.28,63.06Zm0-55.48c-0.88,0-1.59.33-1.59-.55s1.59-1.59,1.59-1.59,1.59,0.71,1.59,1.59S359.16,7.58,358.28,7.58Zm8.83-1.24A1.59,1.59,0,0,1,368.7,7.9h-3.17A1.59,1.59,0,0,1,367.11,6.34Zm0,55.83a1.59,1.59,0,0,1-1.59-1.57h3.17A1.59,1.59,0,0,1,367.11,62.18Zm9.33,0a1.59,1.59,0,0,1-1.58-1.44H378A1.59,1.59,0,0,1,376.44,62.16ZM374.86,7.78a1.59,1.59,0,0,1,3.16,0h-3.16Zm10.41,55.27s-1.59-.71-1.59-1.59,0.71-.55,1.59-0.55,1.59-.33,1.59.55S385.28,63.06,385.28,63.06Zm0-55.48c-0.88,0-1.59.33-1.59-.55s1.59-1.59,1.59-1.59,1.59,0.71,1.59,1.59S386.15,7.58,385.28,7.58Zm8.83-1.24a1.59,1.59,0,0,1,1.59,1.55h-3.17A1.59,1.59,0,0,1,394.11,6.34Zm0,55.83a1.59,1.59,0,0,1-1.59-1.57h3.17A1.59,1.59,0,0,1,394.11,62.18Zm9.33,0a1.59,1.59,0,0,1-1.58-1.44H405A1.59,1.59,0,0,1,403.44,62.16ZM401.86,7.78a1.59,1.59,0,0,1,3.16,0h-3.16Zm10.41,55.27s-1.59-.71-1.59-1.59,0.71-.55,1.59-0.55,1.59-.33,1.59.55S412.27,63.06,412.27,63.06Zm0-55.48c-0.88,0-1.59.33-1.59-.55s1.59-1.59,1.59-1.59,1.59,0.71,1.59,1.59S413.15,7.58,412.27,7.58Zm8.83-1.24a1.59,1.59,0,0,1,1.59,1.55h-3.17A1.59,1.59,0,0,1,421.1,6.34Zm0,55.83a1.59,1.59,0,0,1-1.59-1.57h3.17A1.59,1.59,0,0,1,421.1,62.18Z" transform="translate(-0.2 -0.25)" fill="#fff"/><path d="M515.2,3.19V65.31l0,0a6.62,6.62,0,0,0,9.11.2,20.61,20.61,0,0,0,4.38,2.77,20.6,20.6,0,0,0,4.39-2.77,6.61,6.61,0,0,0,9.08-.19v0l0,0a6.62,6.62,0,0,0,9.11.2,20.61,20.61,0,0,0,4.38,2.77,20.59,20.59,0,0,0,4.39-2.77,6.61,6.61,0,0,0,9.08-.19v0l0,0a6.62,6.62,0,0,0,9.11.2,20.61,20.61,0,0,0,4.38,2.77,20.6,20.6,0,0,0,4.39-2.77,6.61,6.61,0,0,0,9.08-.19v0l0,0a6.62,6.62,0,0,0,9.11.2,20.61,20.61,0,0,0,4.38,2.77,20.59,20.59,0,0,0,4.39-2.77,6.61,6.61,0,0,0,9.08-.19v0l0,0a6.62,6.62,0,0,0,9.11.2,20.61,20.61,0,0,0,4.38,2.77,20.59,20.59,0,0,0,4.39-2.77,6.61,6.61,0,0,0,9.08-.19v0l0,0a6.62,6.62,0,0,0,9.11.2,20.61,20.61,0,0,0,4.38,2.77,20.59,20.59,0,0,0,4.39-2.77,6.61,6.61,0,0,0,9.08-.19v0l0,0a6.62,6.62,0,0,0,9.11.2,20.61,20.61,0,0,0,4.38,2.77,20.59,20.59,0,0,0,4.39-2.77,6.61,6.61,0,0,0,9.08-.19v0l0,0a6.62,6.62,0,0,0,9.11.2,20.61,20.61,0,0,0,4.38,2.77,20.6,20.6,0,0,0,4.39-2.77,6.61,6.61,0,0,0,9.08-.19v0l0,0a6.62,6.62,0,0,0,9.11.2,20.61,20.61,0,0,0,4.38,2.77,20.59,20.59,0,0,0,4.39-2.77,6.61,6.61,0,0,0,9.08-.19v0l0,0a6.62,6.62,0,0,0,9.11.2,20.61,20.61,0,0,0,4.38,2.77,20.59,20.59,0,0,0,4.39-2.77,6.61,6.61,0,0,0,9.08-.19v0l0,0a6.62,6.62,0,0,0,9.11.2,20.61,20.61,0,0,0,4.38,2.77,20.59,20.59,0,0,0,4.39-2.77,6.61,6.61,0,0,0,9.08-.19v0l0,0a6.62,6.62,0,0,0,9.11.2,20.61,20.61,0,0,0,4.38,2.77,20.59,20.59,0,0,0,4.39-2.77,6.61,6.61,0,0,0,9.08-.19v0l0,0a6.62,6.62,0,0,0,9.11.2,20.61,20.61,0,0,0,4.38,2.77,20.6,20.6,0,0,0,4.39-2.77,6.61,6.61,0,0,0,9.08-.19v0l0,0a6.62,6.62,0,0,0,9.11.2,20.61,20.61,0,0,0,4.38,2.77,20.59,20.59,0,0,0,4.39-2.77,6.61,6.61,0,0,0,9.08-.19v0l0,0a6.62,6.62,0,0,0,9.11.2,20.61,20.61,0,0,0,4.38,2.77,20.6,20.6,0,0,0,4.39-2.77,6.61,6.61,0,0,0,9.09-.2,20.24,20.24,0,0,0,4.62,3,20.87,20.87,0,0,0,4.18-2.6,6.62,6.62,0,0,0,9.35-9.27,21,21,0,0,0,2.5-4.06,20.26,20.26,0,0,0-3-4.61,6.62,6.62,0,0,0,.2-9.11,20.61,20.61,0,0,0,2.77-4.38A20.59,20.59,0,0,0,938,29.83a6.61,6.61,0,0,0-.2-9.09,20.24,20.24,0,0,0,3-4.62,21,21,0,0,0-2.5-4.06,6.62,6.62,0,0,0-9.38-9.24A20.91,20.91,0,0,0,924.77.25a20.26,20.26,0,0,0-4.61,3,6.62,6.62,0,0,0-9.11-.2A20.61,20.61,0,0,0,906.67.25,20.6,20.6,0,0,0,902.28,3a6.61,6.61,0,0,0-9.09.2l0,0h0A6.61,6.61,0,0,0,884.05,3,20.61,20.61,0,0,0,879.67.25,20.6,20.6,0,0,0,875.28,3a6.61,6.61,0,0,0-9.09.2l0,0h0A6.61,6.61,0,0,0,857.06,3,20.61,20.61,0,0,0,852.68.25,20.6,20.6,0,0,0,848.29,3a6.61,6.61,0,0,0-9.09.2l0,0h0A6.61,6.61,0,0,0,830.06,3,20.61,20.61,0,0,0,825.68.25,20.6,20.6,0,0,0,821.29,3a6.61,6.61,0,0,0-9.09.2l0,0h0A6.61,6.61,0,0,0,803.07,3,20.61,20.61,0,0,0,798.69.25,20.6,20.6,0,0,0,794.29,3a6.61,6.61,0,0,0-9.09.2l0,0h0A6.61,6.61,0,0,0,776.07,3,20.61,20.61,0,0,0,771.69.25,20.6,20.6,0,0,0,767.3,3a6.61,6.61,0,0,0-9.09.2l0,0h0A6.61,6.61,0,0,0,749.08,3,20.61,20.61,0,0,0,744.69.25,20.6,20.6,0,0,0,740.3,3a6.61,6.61,0,0,0-9.09.2l0,0h0A6.61,6.61,0,0,0,722.08,3,20.61,20.61,0,0,0,717.7.25,20.6,20.6,0,0,0,713.31,3a6.61,6.61,0,0,0-9.09.2l0,0h0A6.61,6.61,0,0,0,695.08,3,20.61,20.61,0,0,0,690.7.25,20.6,20.6,0,0,0,686.31,3a6.61,6.61,0,0,0-9.09.2l0,0h0A6.61,6.61,0,0,0,668.09,3,20.61,20.61,0,0,0,663.71.25,20.6,20.6,0,0,0,659.32,3a6.61,6.61,0,0,0-9.09.2l0,0h0A6.61,6.61,0,0,0,641.09,3,20.61,20.61,0,0,0,636.71.25,20.6,20.6,0,0,0,632.32,3a6.61,6.61,0,0,0-9.09.2l0,0h0A6.61,6.61,0,0,0,614.1,3,20.61,20.61,0,0,0,609.72.25,20.6,20.6,0,0,0,605.32,3a6.61,6.61,0,0,0-9.09.2l0,0h0A6.61,6.61,0,0,0,587.1,3,20.61,20.61,0,0,0,582.72.25,20.6,20.6,0,0,0,578.33,3a6.61,6.61,0,0,0-9.09.2l0,0h0A6.61,6.61,0,0,0,560.11,3,20.61,20.61,0,0,0,555.72.25,20.6,20.6,0,0,0,551.33,3a6.61,6.61,0,0,0-9.09.2l0,0h0A6.61,6.61,0,0,0,533.11,3,20.61,20.61,0,0,0,528.73.25,20.6,20.6,0,0,0,524.34,3a6.61,6.61,0,0,0-9.09.2ZM935.6,16.13s-0.71,1.59-1.59,1.59-0.55-.71-0.55-1.59-0.33-1.59.55-1.59S935.6,16.13,935.6,16.13Zm-2.44,7.68a1.59,1.59,0,0,1,0,3.17V23.81Zm1.56,19.25a1.59,1.59,0,0,1-1.57,1.59V41.47A1.59,1.59,0,0,1,934.72,43.05Zm0.88-8.83s-0.71,1.59-1.59,1.59-0.55-.71-0.55-1.59-0.33-1.59.55-1.59S935.6,34.22,935.6,34.22ZM934,53.91c-0.88,0-.55-0.71-0.55-1.59s-0.33-1.59.55-1.59,1.59,1.59,1.59,1.59S934.89,53.91,934,53.91Zm-2.44,6.73A2.13,2.13,0,0,0,933.1,59a7,7,0,0,0,.7.06A1.59,1.59,0,1,1,931.58,60.64Zm0-52.79a1.59,1.59,0,1,1,2.22,1.49,7,7,0,0,0-.71.06A2.13,2.13,0,0,0,931.58,7.85Zm-8.4,53.62c0-.88.71-0.55,1.59-0.55s1.59-.33,1.59.55-1.59,1.59-1.59,1.59S923.18,62.35,923.18,61.47Zm0-54.44c0-.88,1.59-1.59,1.59-1.59s1.59,0.71,1.59,1.59-0.71.55-1.59,0.55S923.18,7.91,923.18,7Zm-9.26,53.69h3.16A1.58,1.58,0,0,1,913.92,60.72Zm0-52.93a1.59,1.59,0,0,1,3.16,0h-3.16ZM908.26,7c0,0.88-.71.55-1.59,0.55s-1.59.33-1.59-.55,1.59-1.59,1.59-1.59S908.26,6.15,908.26,7Zm-3.18,54.44c0-.88.71-0.55,1.59-0.55s1.59-.33,1.59.55-1.59,1.59-1.59,1.59S905.08,62.35,905.08,61.47ZM899.42,7.9h-3.17A1.59,1.59,0,0,1,899.42,7.9ZM896.25,60.6h3.17A1.59,1.59,0,0,1,896.25,60.6Zm-9.32.11h3.16A1.58,1.58,0,0,1,886.93,60.72Zm0-52.93a1.59,1.59,0,0,1,3.16,0h-3.16Zm-8.84,53.69c0-.88.71-0.55,1.59-0.55s1.59-.33,1.59.55-1.59,1.59-1.59,1.59S878.09,62.35,878.09,61.47Zm0-54.44c0-.88,1.59-1.59,1.59-1.59s1.59,0.71,1.59,1.59-0.71.55-1.59,0.55S878.09,7.91,878.09,7Zm-5.66.87h-3.17A1.59,1.59,0,0,1,872.43,7.9ZM869.26,60.6h3.17A1.59,1.59,0,0,1,869.26,60.6Zm-9.32.11h3.16A1.58,1.58,0,0,1,859.93,60.72Zm0-52.93a1.59,1.59,0,0,1,3.16,0h-3.16Zm-8.84,53.69c0-.88.71-0.55,1.59-0.55s1.59-.33,1.59.55-1.59,1.59-1.59,1.59S851.09,62.35,851.09,61.47Zm0-54.44c0-.88,1.59-1.59,1.59-1.59s1.59,0.71,1.59,1.59-0.71.55-1.59,0.55S851.09,7.91,851.09,7Zm-5.66.87h-3.17A1.59,1.59,0,0,1,845.43,7.9ZM842.26,60.6h3.17A1.59,1.59,0,0,1,842.26,60.6Zm-9.32.11h3.16A1.58,1.58,0,0,1,832.93,60.72Zm0-52.93a1.59,1.59,0,0,1,3.16,0h-3.16Zm-8.84,53.69c0-.88.71-0.55,1.59-0.55s1.59-.33,1.59.55-1.59,1.59-1.59,1.59S824.09,62.35,824.09,61.47Zm0-54.44c0-.88,1.59-1.59,1.59-1.59s1.59,0.71,1.59,1.59-0.71.55-1.59,0.55S824.09,7.91,824.09,7Zm-5.66.87h-3.17A1.59,1.59,0,0,1,818.44,7.9ZM815.26,60.6h3.17A1.59,1.59,0,0,1,815.26,60.6Zm-9.32.11h3.16A1.58,1.58,0,0,1,805.94,60.72Zm0-52.93a1.59,1.59,0,0,1,3.16,0h-3.16ZM797.1,61.47c0-.88.71-0.55,1.59-0.55s1.59-.33,1.59.55-1.59,1.59-1.59,1.59S797.1,62.35,797.1,61.47ZM797.1,7c0-.88,1.59-1.59,1.59-1.59s1.59,0.71,1.59,1.59-0.71.55-1.59,0.55S797.1,7.91,797.1,7Zm-5.66.87h-3.17A1.59,1.59,0,0,1,791.44,7.9ZM788.27,60.6h3.17A1.59,1.59,0,0,1,788.27,60.6Zm-9.32.11h3.16A1.58,1.58,0,0,1,778.94,60.72Zm0-52.93a1.59,1.59,0,0,1,3.16,0h-3.16ZM770.1,61.47c0-.88.71-0.55,1.59-0.55s1.59-.33,1.59.55-1.59,1.59-1.59,1.59S770.1,62.35,770.1,61.47ZM770.1,7c0-.88,1.59-1.59,1.59-1.59s1.59,0.71,1.59,1.59-0.71.55-1.59,0.55S770.1,7.91,770.1,7Zm-5.66.87h-3.17A1.59,1.59,0,0,1,764.45,7.9ZM761.27,60.6h3.17A1.59,1.59,0,0,1,761.27,60.6Zm-9.32.11h3.16A1.58,1.58,0,0,1,751.95,60.72Zm0-52.93a1.59,1.59,0,0,1,3.16,0h-3.16Zm-8.84,53.69c0-.88.71-0.55,1.59-0.55s1.59-.33,1.59.55-1.59,1.59-1.59,1.59S743.11,62.35,743.11,61.47Zm0-54.44c0-.88,1.59-1.59,1.59-1.59s1.59,0.71,1.59,1.59-0.71.55-1.59,0.55S743.11,7.91,743.11,7Zm-5.66.87h-3.17A1.59,1.59,0,0,1,737.45,7.9ZM734.28,60.6h3.17A1.59,1.59,0,0,1,734.28,60.6Zm-9.32.11h3.16A1.58,1.58,0,0,1,725,60.72Zm0-52.93a1.59,1.59,0,0,1,3.16,0h-3.16Zm-8.84,53.69c0-.88.71-0.55,1.59-0.55s1.59-.33,1.59.55-1.59,1.59-1.59,1.59S716.11,62.35,716.11,61.47Zm0-54.44c0-.88,1.59-1.59,1.59-1.59s1.59,0.71,1.59,1.59-0.71.55-1.59,0.55S716.11,7.91,716.11,7Zm-5.66.87h-3.17A1.59,1.59,0,0,1,710.45,7.9ZM707.28,60.6h3.17A1.59,1.59,0,0,1,707.28,60.6Zm-9.32.11h3.16A1.58,1.58,0,0,1,698,60.72Zm0-52.93a1.59,1.59,0,0,1,3.16,0H698Zm-8.84,53.69c0-.88.71-0.55,1.59-0.55s1.59-.33,1.59.55-1.59,1.59-1.59,1.59S689.12,62.35,689.12,61.47Zm0-54.44c0-.88,1.59-1.59,1.59-1.59s1.59,0.71,1.59,1.59-0.71.55-1.59,0.55S689.12,7.91,689.12,7Zm-5.66.87h-3.17A1.59,1.59,0,0,1,683.46,7.9ZM680.29,60.6h3.17A1.59,1.59,0,0,1,680.29,60.6Zm-9.32.11h3.16A1.58,1.58,0,0,1,671,60.72Zm0-52.93a1.59,1.59,0,0,1,3.16,0H671Zm-8.84,53.69c0-.88.71-0.55,1.59-0.55s1.59-.33,1.59.55-1.59,1.59-1.59,1.59S662.12,62.35,662.12,61.47Zm0-54.44c0-.88,1.59-1.59,1.59-1.59S665.3,6.15,665.3,7s-0.71.55-1.59,0.55S662.12,7.91,662.12,7Zm-5.66.87h-3.17A1.59,1.59,0,0,1,656.46,7.9ZM653.29,60.6h3.17A1.59,1.59,0,0,1,653.29,60.6Zm-9.32.11h3.16A1.58,1.58,0,0,1,644,60.72Zm0-52.93a1.59,1.59,0,0,1,3.16,0H644Zm-8.84,53.69c0-.88.71-0.55,1.59-0.55s1.59-.33,1.59.55-1.59,1.59-1.59,1.59S635.12,62.35,635.12,61.47Zm0-54.44c0-.88,1.59-1.59,1.59-1.59S638.3,6.15,638.3,7s-0.71.55-1.59,0.55S635.12,7.91,635.12,7Zm-5.66.87h-3.17A1.59,1.59,0,0,1,629.47,7.9ZM626.29,60.6h3.17A1.59,1.59,0,0,1,626.29,60.6Zm-9.32.11h3.16A1.58,1.58,0,0,1,617,60.72Zm0-52.93a1.59,1.59,0,0,1,3.16,0H617Zm-8.84,53.69c0-.88.71-0.55,1.59-0.55s1.59-.33,1.59.55-1.59,1.59-1.59,1.59S608.13,62.35,608.13,61.47Zm0-54.44c0-.88,1.59-1.59,1.59-1.59S611.3,6.15,611.3,7s-0.71.55-1.59,0.55S608.13,7.91,608.13,7Zm-5.66.87H599.3A1.59,1.59,0,0,1,602.47,7.9ZM599.3,60.6h3.17A1.59,1.59,0,0,1,599.3,60.6Zm-9.32.11h3.16A1.58,1.58,0,0,1,590,60.72Zm0-52.93a1.59,1.59,0,0,1,3.16,0H590Zm-8.84,53.69c0-.88.71-0.55,1.59-0.55s1.59-.33,1.59.55-1.59,1.59-1.59,1.59S581.13,62.35,581.13,61.47Zm0-54.44c0-.88,1.59-1.59,1.59-1.59s1.59,0.71,1.59,1.59-0.71.55-1.59,0.55S581.13,7.91,581.13,7Zm-5.66.87H572.3A1.59,1.59,0,0,1,575.48,7.9ZM572.3,60.6h3.17A1.59,1.59,0,0,1,572.3,60.6Zm-9.32.11h3.16A1.58,1.58,0,0,1,563,60.72Zm0-52.93a1.59,1.59,0,0,1,3.16,0H563Zm-8.84,53.69c0-.88.71-0.55,1.59-0.55s1.59-.33,1.59.55-1.59,1.59-1.59,1.59S554.14,62.35,554.14,61.47Zm0-54.44c0-.88,1.59-1.59,1.59-1.59s1.59,0.71,1.59,1.59-0.71.55-1.59,0.55S554.14,7.91,554.14,7Zm-5.66.87h-3.17A1.59,1.59,0,0,1,548.48,7.9ZM545.31,60.6h3.17A1.59,1.59,0,0,1,545.31,60.6Zm-9.32.11h3.16A1.58,1.58,0,0,1,536,60.72Zm0-52.93a1.59,1.59,0,0,1,3.16,0H536Zm-8.84,53.69c0-.88.71-0.55,1.59-0.55s1.59-.33,1.59.55-1.59,1.59-1.59,1.59S527.14,62.35,527.14,61.47Zm0-54.44c0-.88,1.59-1.59,1.59-1.59s1.59,0.71,1.59,1.59-0.71.55-1.59,0.55S527.14,7.91,527.14,7Zm-5.66.87h-3.17A1.59,1.59,0,0,1,521.48,7.9ZM518.31,60.6h3.17A1.59,1.59,0,0,1,518.31,60.6Z" transform="translate(-0.2 -0.25)" fill="#fff"/></svg>